HIERARCHY
ROOT Hips
{
	OFFSET 0.000000 0.000000 0.000000
	CHANNELS 6 Xposition Yposition Zposition Zrotation Yrotation Xrotation
	JOINT Chest
	{
		OFFSET 0.000000 10.364816 -1.151647
		CHANNELS 3 Zrotation Yrotation Xrotation
		JOINT Chest2
		{
			OFFSET 0.000000 11.517722 0.000000
			CHANNELS 3 Zrotation Yrotation Xrotation
			JOINT Chest3
			{
				OFFSET 0.000000 10.515803 -0.000997
				CHANNELS 3 Zrotation Yrotation Xrotation
				JOINT Chest4
				{
					OFFSET 0.000000 10.504064 -0.000998
					CHANNELS 3 Zrotation Yrotation Xrotation
					JOINT Neck
					{
						OFFSET 0.000000 14.700995 0.000000
						CHANNELS 3 Zrotation Yrotation Xrotation
						JOINT Head
						{
							OFFSET 0.000000 9.779656 0.002144
							CHANNELS 3 Zrotation Yrotation Xrotation
							End Site
							{
								OFFSET 0.000000 0.000000 0.000000
							}
						}
					}
					JOINT RightCollar
					{
						OFFSET -3.200323 8.241254 0.000000
						CHANNELS 3 Zrotation Yrotation Xrotation
						JOINT RightShoulder
						{
							OFFSET -14.963748 0.000000 0.000000
							CHANNELS 3 Zrotation Yrotation Xrotation
							JOINT RightElbow
							{
								OFFSET -31.975847 0.000000 0.000000
								CHANNELS 3 Zrotation Yrotation Xrotation
								JOINT RightWrist
								{
									OFFSET -26.149034 0.000000 0.000000
									CHANNELS 3 Zrotation Yrotation Xrotation
									End Site
									{
										OFFSET 0.000000 0.000000 0.000000
									}
								}
							}
						}
					}
					JOINT LeftCollar
					{
						OFFSET 3.200323 8.241254 0.000000
						CHANNELS 3 Zrotation Yrotation Xrotation
						JOINT LeftShoulder
						{
							OFFSET 14.963748 0.000000 0.000000
							CHANNELS 3 Zrotation Yrotation Xrotation
							JOINT LeftElbow
							{
								OFFSET 31.975847 0.000000 0.000000
								CHANNELS 3 Zrotation Yrotation Xrotation
								JOINT LeftWrist
								{
									OFFSET 26.149034 0.000000 0.000000
									CHANNELS 3 Zrotation Yrotation Xrotation
									End Site
									{
										OFFSET 0.000000 0.000000 0.000000
									}
								}
							}
						}
					}
				}
			}
		}
	}
	JOINT RightHip
	{
		OFFSET -8.525852 0.003604 -0.000400
		CHANNELS 3 Zrotation Yrotation Xrotation
		JOINT RightKnee
		{
			OFFSET 0.000000 -44.087434 -0.000236
			CHANNELS 3 Zrotation Yrotation Xrotation
			JOINT RightAnkle
			{
				OFFSET 0.000000 -43.085328 -0.000397
				CHANNELS 3 Zrotation Yrotation Xrotation
				JOINT RightToe
				{
					OFFSET 0.000000 -7.938348 18.057956
					CHANNELS 3 Zrotation Yrotation Xrotation
					End Site
					{
						OFFSET 0.000000 0.000000 0.000000
					}
				}
			}
		}
	}
	JOINT LeftHip
	{
		OFFSET 8.525852 0.001277 -0.000142
		CHANNELS 3 Zrotation Yrotation Xrotation
		JOINT LeftKnee
		{
			OFFSET 0.000000 -44.087434 -0.000236
			CHANNELS 3 Zrotation Yrotation Xrotation
			JOINT LeftAnkle
			{
				OFFSET 0.000000 -43.085328 -0.000397
				CHANNELS 3 Zrotation Yrotation Xrotation
				JOINT LeftToe
				{
					OFFSET 0.000000 -7.938348 18.057956
					CHANNELS 3 Zrotation Yrotation Xrotation
					End Site
					{
						OFFSET 0.000000 0.000000 0.000000
					}
				}
			}
		}
	}
}
MOTION
Frames: 7
Frame Time: 0.004167
196.355476 95.182990 690.789925 2.740641 -10.363068 0.021835 -2.284839 -2.170843 4.623342 -0.993625 -0.987543 -3.782612 -1.088733 -0.881583 2.037633 -0.813664 -0.664756 7.363314 -0.501720 2.570865 15.149452 -1.869057 4.490827 -7.944842 8.007766 -0.767751 -2.278815 76.535168 -3.861357 -2.166917 1.125565 5.145021 22.197604 -3.106171 -4.940154 -0.240507 -6.117994 -5.187500 -3.935681 -62.738922 -22.583962 -7.831727 -5.764028 -6.060161 7.952336 5.534711 -1.064666 4.253495 0.297988 -8.306299 -25.263754 1.318751 3.933914 10.005599 2.492285 4.422001 -11.010830 0.000000 0.000000 0.000000 -3.848261 4.656038 8.183082 0.207504 -1.864733 19.938999 -2.806209 -3.097682 -10.572092 5.134024 0.808711 -17.970574 
196.233192 95.135678 691.286140 2.719259 -10.304335 0.049548 -2.261484 -2.172829 4.583564 -0.983415 -0.987997 -3.800189 -1.078623 -0.883072 2.020076 -0.806102 -0.665807 7.350158 -0.498567 2.564490 15.169244 -1.860260 4.480655 -7.907753 8.005285 -0.779978 -2.259744 76.525852 -3.985417 -2.182135 1.092433 5.119856 22.239147 -3.099150 -4.948323 -0.234810 -6.125509 -5.182201 -3.908620 -62.783311 -22.515998 -7.832712 -5.757982 -6.073684 7.974246 5.519302 -1.064068 4.255437 0.449496 -8.367247 -25.137102 1.228154 4.003533 10.014591 2.468375 4.267004 -11.096298 0.000000 0.000000 0.000000 -3.750624 4.828118 8.343746 0.238916 -1.964440 20.146511 -2.908475 -3.179383 -10.497719 5.181625 0.837408 -18.396523 
196.108424 95.087345 691.784883 2.695745 -10.242607 0.079463 -2.236997 -2.175385 4.540870 -0.972711 -0.988684 -3.819060 -1.068044 -0.884839 2.001226 -0.798191 -0.667065 7.336033 -0.495220 2.558058 15.189849 -1.851064 4.470456 -7.869153 8.003959 -0.793141 -2.239739 76.514704 -4.103853 -2.202522 1.064446 5.100212 22.274236 -3.092525 -4.955349 -0.229990 -6.131561 -5.176390 -3.881745 -62.834323 -22.433785 -7.836264 -5.752695 -6.090116 7.998427 5.504972 -1.063426 4.256589 0.593359 -8.415691 -25.012211 1.142428 4.118506 10.042105 2.416151 4.126343 -11.190710 0.000000 0.000000 0.000000 -3.650031 4.988979 8.492096 0.274092 -2.053752 20.376328 -3.015839 -3.264742 -10.423618 5.229552 0.867188 -18.818251 
195.979791 95.035182 692.287480 2.671014 -10.177576 0.112153 -2.212164 -2.178668 4.493811 -0.961867 -0.989673 -3.839871 -1.057358 -0.886923 1.980436 -0.790200 -0.668556 7.320452 -0.491332 2.551659 15.212352 -1.840836 4.460536 -7.827010 8.003594 -0.808052 -2.217309 76.503059 -4.218589 -2.227398 1.041927 5.086886 22.303375 -3.086232 -4.960699 -0.226106 -6.134554 -5.169891 -3.853531 -62.892516 -22.335651 -7.843198 -5.748760 -6.110918 8.026032 5.490238 -1.062723 4.257275 0.738040 -8.455544 -24.892138 1.051182 4.281142 10.116845 2.321341 4.008974 -11.315504 0.000000 0.000000 0.000000 -3.547983 5.143271 8.636566 0.312465 -2.140204 20.616645 -3.123696 -3.348362 -10.352735 5.274432 0.897245 -19.257744 
195.846282 94.977456 692.794671 2.645551 -10.109477 0.147863 -2.187463 -2.182509 4.441593 -0.951101 -0.990893 -3.862978 -1.046772 -0.889228 1.957352 -0.782287 -0.670213 7.303150 -0.486678 2.545315 15.237580 -1.829143 4.451034 -7.779784 8.003894 -0.824958 -2.191561 76.492306 -4.330917 -2.254887 1.024277 5.079688 22.327832 -3.080248 -4.964024 -0.223103 -6.133724 -5.162360 -3.822732 -62.958048 -22.221589 -7.853186 -5.746382 -6.136438 8.058132 5.473704 -1.061807 4.258023 0.892170 -8.491421 -24.779511 0.945055 4.484027 10.264877 2.178789 3.914793 -11.482857 0.000000 0.000000 0.000000 -3.444744 5.296620 8.783658 0.353290 -2.230540 20.857927 -3.228886 -3.426782 -10.286045 5.313976 0.926944 -19.731279 
195.708570 94.915737 693.305677 2.618811 -10.038730 0.186204 -2.162458 -2.186667 4.385081 -0.940217 -0.992238 -3.887992 -1.036082 -0.891670 1.932360 -0.774299 -0.671968 7.284416 -0.481438 2.538955 15.265015 -1.816309 4.441745 -7.728441 8.004872 -0.843258 -2.163345 76.482035 -4.439829 -2.284503 1.010874 5.077775 22.347904 -3.074618 -4.965617 -0.220900 -6.130077 -5.153761 -3.790025 -63.030439 -22.093102 -7.865343 -5.745138 -6.165546 8.094293 5.455914 -1.060604 4.258843 1.053070 -8.522381 -24.673032 0.828259 4.720683 10.475186 1.998305 3.834804 -11.679847 0.000000 0.000000 0.000000 -3.339177 5.448068 8.929399 0.396688 -2.321852 21.105411 -3.333741 -3.502999 -10.221377 5.349847 0.956623 -20.228207 
195.567331 94.851592 693.819716 2.590250 -9.965751 0.226781 -2.136718 -2.190899 4.325134 -0.929022 -0.993600 -3.914529 -1.025084 -0.894162 1.905845 -0.766081 -0.673758 7.264543 -0.475795 2.532506 15.294139 -1.802654 4.432465 -7.673948 8.006537 -0.862353 -2.133515 76.471825 -4.544316 -2.315765 1.001092 5.080304 22.363883 -3.069387 -4.965765 -0.219415 -6.124622 -5.144059 -3.756086 -63.109208 -21.951690 -7.878776 -5.744603 -6.197112 8.134080 5.437416 -1.059046 4.259747 1.218052 -8.547482 -24.571385 0.705068 4.984664 10.736778 1.789753 3.760138 -11.893581 0.000000 0.000000 0.000000 -3.230186 5.596664 9.069808 0.442790 -2.411266 21.364339 -3.440546 -3.580040 -10.156519 5.383750 0.986659 -20.737877 
